# xmcd CD database file
#
# Track frame offsets:
#	150
#	21542
#	39095
#	58737
#	77935
#	95927
#	116967
#	135895
#	152790
#	176797
#
# Disc length: 2626 seconds
#
# Revision: 4
# Processed by: cddbd v1.5PL3 Copyright (c) Steve Scherf et al.
# Submitted via: CDex 1.50beta8
#
DISCID=890a400a
DTITLE=山形由美 - wind for mind
DYEAR=1987
DGENRE=New Age
TTITLE0=WIND FOR MIND
TTITLE1=LOGGIA
TTITLE2=HORSE CHESTNUT
TTITLE3=RIVER
TTITLE4=烏龍茶会(WOO-LONG TEA PARTY)
TTITLE5=MORNING MIST
TTITLE6=穏やかな瞬間
TTITLE7=五月の風
TTITLE8=SILENT SCENE
TTITLE9=夏の夜の夢
EXTD=YEAR: 1987
EXTT0=
EXTT1=
EXTT2=
EXTT3=
EXTT4=
EXTT5=
EXTT6=
EXTT7=
EXTT8=
EXTT9=
PLAYORDER=
